# xmcd
#
# Track frame offsets:
#	150
#	13403
#	27874
#	36771
#	46000
#	51012
#	68715
#	80609
#	84239
#	103553
#	109199
#	124478
#	140444
#
# Disc length: 2135 seconds
#
# Revision: 0
# Processed by: cddbd v1.5.2PL0 Copyright (c) Steve Scherf et al.
# Submitted via: audiograbber 1.83.01
#
DISCID=a708550d
DTITLE=Fall River Boys - Crowdin' Fences
DYEAR=1900
DGENRE=Country
TTITLE0=Long Night Ride
TTITLE1=The Traps
TTITLE2=Tumbling Tumbleweeds
TTITLE3=Up on the Mountain
TTITLE4=Manure
TTITLE5=Line Shack Blues
TTITLE6=Prairie Lullaby
TTITLE7=Prayer of a Cowboy
TTITLE8=Night Riders Lament
TTITLE9=Shotgun Chicken
TTITLE10=Cowpoke
TTITLE11=Crowdin' Fences
TTITLE12=Coyotes
EXTD=
EXTT0=
EXTT1=
EXTT2=
EXTT3=
EXTT4=
EXTT5=
EXTT6=
EXTT7=
EXTT8=
EXTT9=
EXTT10=
EXTT11=
EXTT12=
PLAYORDER=
